{"title":"R.I.P.D. 2013 WEBRip 480p x264 AAC - VYTO [P2PDL]","uid":8863810,"size":319119545,"categoryP":"video","categoryS":"movies","magnet":"?xt=urn:btih:d08275fbf1d0ff69d99bf73508aa51ffedafc4b9&amp;dn=R.I.P.D.+2013+WEBRip+480p+x264+AAC+-+VYTO+%5BP2PDL%5D&amp;tr=udp%3A%2F%2Ftracker.openbittorrent.com%3A80&amp;tr=udp%3A%2F%2Fopen.demonii.com%3A1337&amp;tr=udp%3A%2F%2Ftracker.coppersurfer.tk%3A6969&amp;tr=udp%3A%2F%2Fexodus.desync.com%3A6969","seeders":3,"leechers":0,"uploader":"ValidusVyto","files":-1,"time":1377844509,"description":"_______ Visit us at our Semi Public Bittorrent Community ________\n  &lt;a href=&quot;\nhttp://p2pdl.com&quot; rel=&quot;nofollow&quot; target=&quot;_NEW&quot;&gt;\nhttp://p2pdl.com&lt;/a&gt;  _____________________________ &lt;a href=&quot; http://p2pdl.com&quot; rel=&quot;nofollow&quot; target=&quot;_NEW&quot;&gt; http://p2pdl.com&lt;/a&gt;                                                                                                   \n\n\n                                                                                             \nR.I.P.D. 2013 WEBRip 480p x264 AAC - VYTO\n\n\n\nGenre: Action | Comedy | Crime\nPlot: A recently slain cop joins a team of undead police officers working for the\nRest in Peace Department and tries to find the man who murdered him. \nDirector: Robert Schwentke\nStars: Ryan Reynolds, Jeff Bridges, Mary-Louise Parker.\nRated: PG-13 for violence, sci-fi/fantasy action, some sensuality, and language\nincluding sex references.\n\n\nIMDb: &lt;a href=&quot;\nhttp://www.imdb.com/title/tt0790736/&quot; rel=&quot;nofollow&quot; target=&quot;_NEW&quot;&gt;\nhttp://www.imdb.com/title/tt0790736/&lt;/a&gt;\n\nTrailer:\n\n\nFormat                         : MPEG-4\nFile size                      : 302 MiB\nDuration                       : 1h 35mn\nOverall bit rate mode          : Variable\nOverall bit rate               : 440 Kbps\n\nVideo\nFormat                         : AVC\nBit rate                       : 401 Kbps\nWidth                          : 720 pixels\nHeight                         : 304 pixels\nDisplay aspect ratio           : 2.35:1\nFrame rate mode                : Constant\nFrame rate                     : 23.976 fps\nBit depth                      : 10 bits\nStream size                    : 275 MiB (91%)\nWriting library                : x264 core 133 r2334\n\nAudio\nFormat                         : AAC\nBit rate                       : 36.0 Kbps\nChannel(s)                     : 2 channels\nChannel positions              : Front: L R\nSampling rate                  : 48.0 KHz\nStream size                    : 24.7 MiB (8%)\nLanguage                       : English\n\nSubtitle                       : N/a\n\nSource                         : 720p.WEB-DL.H264-WEBiOS\n &lt;a href=&quot;\nhttp://ultraimg.com/images/VpQuL.png&quot; rel=&quot;nofollow&quot; target=&quot;_NEW&quot;&gt;\nhttp://ultraimg.com/images/VpQuL.png&lt;/a&gt; &lt;a href=&quot;\nhttp://ultraimg.com/images/RmrgT.png&quot; rel=&quot;nofollow&quot; target=&quot;_NEW&quot;&gt;\nhttp://ultraimg.com/images/RmrgT.png&lt;/a&gt; &lt;a href=&quot;\nhttp://ultraimg.com/images/KotnX.png&quot; rel=&quot;nofollow&quot; target=&quot;_NEW&quot;&gt;\nhttp://ultraimg.com/images/KotnX.png&lt;/a&gt; &lt;a href=&quot;\nhttp://ultraimg.com/images/F26r.png&quot; rel=&quot;nofollow&quot; target=&quot;_NEW&quot;&gt;\nhttp://ultraimg.com/images/F26r.png&lt;/a&gt; &lt;a href=&quot;\nhttp://ultraimg.com/images/7DfI1.png&quot; rel=&quot;nofollow&quot; target=&quot;_NEW&quot;&gt;\nhttp://ultraimg.com/images/7DfI1.png&lt;/a&gt; &lt;a href=&quot;\nhttp://ultraimg.com/images/VSCPQ.png&quot; rel=&quot;nofollow&quot; target=&quot;_NEW&quot;&gt;\nhttp://ultraimg.com/images/VSCPQ.png&lt;/a&gt; &lt;a href=&quot;\nhttp://ultraimg.com/images/yxEAj.png&quot; rel=&quot;nofollow&quot; target=&quot;_NEW&quot;&gt;\nhttp://ultraimg.com/images/yxEAj.png&lt;/a&gt; &lt;a href=&quot;\nhttp://ultraimg.com/images/BUqwE.png&quot; rel=&quot;nofollow&quot; target=&quot;_NEW&quot;&gt;\nhttp://ultraimg.com/images/BUqwE.png&lt;/a&gt;\n\n\n----------------------------------------------------------------------------------------------------\n\n\nEncoded using revolutionary 10bit encoding, which enables us to provide you more crispier \nand sharper images at small sizes, just make sure you follow our instructions without a fault.\nRecommend to you to use latest version of VLC player. Install K-Lite Codec Pack or shark007 codecs\nin case of any kind of problem in playback (For non-VLC Media Player users). Alternatively, install\nCore AVC codecs, the fastest decoder that there is coupled with Community Center Codec Pack and play\non Windows Media Player Classic. Check sample to be sure.\nEnjoy!\n\nEncoder Notes:Looking For Early Access To Anything You Can Provide DVDScr, R5, DVDR, BluRay, Direct\nAudio, Music Releases and Seedboxes. We require dedicated servers, so as to do more \nand fast releases of movies.\nIf You Got anything to offer please contact us at &quot;&lt;a class=&quot;__cf_email__&quot; href=&quot;/cdn-cgi/l/email-protection&quot; data-cfemail=&quot;33434154735b46405b1d505c5e&quot;&gt;[email&amp;#160;protected]&lt;/a&gt;&lt;script cf-hash='f9e31' type=&quot;text/javascript&quot;&gt;\n/* &lt;![CDATA[ */!function(){try{var t=&quot;currentScript&quot;in document?document.currentScript:function(){for(var t=document.getElementsByTagName(&quot;script&quot;),e=t.length;e--;)if(t[e].getAttribute(&quot;cf-hash&quot;))return t[e]}();if(t&amp;&amp;t.previousSibling){var e,r,n,i,c=t.previousSibling,a=c.getAttribute(&quot;data-cfemail&quot;);if(a){for(e=&quot;&quot;,r=parseInt(a.substr(0,2),16),n=2;a.length-n;n+=2)i=parseInt(a.substr(n,2),16)^r,e+=String.fromCharCode(i);e=document.createTextNode(e),c.parentNode.replaceChild(e,c)}}}catch(u){}}();/* ]]&gt; */&lt;/script&gt;&quot;.\n\nFace book Fan Page:  \nSearch P2PDL on FB and hit like!!!\n\nFor more of our team uploads visit @                           &lt;a href=&quot;\nhttp://thepiratebay.se/user/vitamin_x&quot; rel=&quot;nofollow&quot; target=&quot;_NEW&quot;&gt;\nhttp://thepiratebay.se/user/vitamin_x&lt;/a&gt;\t  ","torrent":{"xt":"urn:btih:d08275fbf1d0ff69d99bf73508aa51ffedafc4b9","amp;dn":"R.I.P.D.+2013+WEBRip+480p+x264+AAC+-+VYTO+%5BP2PDL%5D","amp;tr":["udp%3A%2F%2Ftracker.openbittorrent.com%3A80","udp%3A%2F%2Fopen.demonii.com%3A1337","udp%3A%2F%2Ftracker.coppersurfer.tk%3A6969","udp%3A%2F%2Fexodus.desync.com%3A6969"],"infoHash":"d08275fbf1d0ff69d99bf73508aa51ffedafc4b9","infoHashBuffer":{"type":"Buffer","data":[208,130,117,251,241,208,255,105,217,155,247,53,8,170,81,255,237,175,196,185]},"announce":[],"urlList":[]}}